<svg width="80" height="81" viewBox="0 0 80 81" fill="none" xmlns="http://www.w3.org/2000/svg">
<circle opacity="0.05" cx="40" cy="40.1216" r="40" fill="#5A102A"/>
<path d="M50.1562 29.1841H20.4688V57.3091H56.4062V37.5177" stroke="#5A102A" stroke-width="2" stroke-linecap="round" stroke-linejoin="round"/>
<path d="M23.6141 33.0904C24.0417 33.0904 24.3883 32.7438 24.3883 32.3162C24.3883 31.8886 24.0417 31.542 23.6141 31.542C23.1865 31.542 22.8398 31.8886 22.8398 32.3162C22.8398 32.7438 23.1865 33.0904 23.6141 33.0904Z" fill="#5A102A"/>
<path d="M25.9375 33.0903C26.369 33.0903 26.7188 32.7406 26.7188 32.3091C26.7188 31.8776 26.369 31.5278 25.9375 31.5278C25.506 31.5278 25.1562 31.8776 25.1562 32.3091C25.1562 32.7406 25.506 33.0903 25.9375 33.0903Z" fill="#5A102A"/>
<path d="M28.2609 33.0904C28.6885 33.0904 29.0352 32.7438 29.0352 32.3162C29.0352 31.8886 28.6885 31.542 28.2609 31.542C27.8333 31.542 27.4867 31.8886 27.4867 32.3162C27.4867 32.7438 27.8333 33.0904 28.2609 33.0904Z" fill="#5A102A"/>
<path d="M29.8438 43.2466C31.5696 43.2466 32.9688 41.8475 32.9688 40.1216C32.9688 38.3957 31.5696 36.9966 29.8438 36.9966C28.1179 36.9966 26.7188 38.3957 26.7188 40.1216C26.7188 41.8475 28.1179 43.2466 29.8438 43.2466Z" stroke="#5A102A" stroke-width="2" stroke-linecap="round" stroke-linejoin="round"/>
<path d="M39.2188 38.5591H44.6875M39.2188 42.4653H52.5M39.2188 46.3716H52.5M29.8438 43.2466C31.2942 43.2466 32.6852 43.8228 33.7107 44.8483C34.7363 45.8739 35.3125 47.2649 35.3125 48.7153V52.6216H24.375V48.7153C24.375 47.2649 24.9512 45.8739 25.9768 44.8483C27.0023 43.8228 28.3933 43.2466 29.8438 43.2466ZM56.6234 24.3403C54.2344 27.095 49.9219 27.3091 49.9219 27.3091C51.1398 36.1052 56.6203 37.3614 56.6203 37.3614C56.6203 37.3614 62.1016 36.1052 63.3195 27.3091C63.3227 27.3091 58.8281 27.095 56.6234 24.3403Z" stroke="#5A102A" stroke-width="2" stroke-linecap="round" stroke-linejoin="round"/>
<path d="M54.7844 31.231L56.0148 32.695L58.75 29.1841" stroke="#5A102A" stroke-width="2" stroke-linecap="round" stroke-linejoin="round"/>
<path d="M43.125 52.6216C43.5565 52.6216 43.9062 52.2718 43.9062 51.8403C43.9062 51.4089 43.5565 51.0591 43.125 51.0591C42.6935 51.0591 42.3438 51.4089 42.3438 51.8403C42.3438 52.2718 42.6935 52.6216 43.125 52.6216Z" fill="#5A102A"/>
<path d="M40 52.6216C40.4315 52.6216 40.7812 52.2718 40.7812 51.8403C40.7812 51.4089 40.4315 51.0591 40 51.0591C39.5685 51.0591 39.2188 51.4089 39.2188 51.8403C39.2188 52.2718 39.5685 52.6216 40 52.6216Z" fill="#5A102A"/>
<path d="M46.25 52.6216C46.6815 52.6216 47.0312 52.2718 47.0312 51.8403C47.0312 51.4089 46.6815 51.0591 46.25 51.0591C45.8185 51.0591 45.4688 51.4089 45.4688 51.8403C45.4688 52.2718 45.8185 52.6216 46.25 52.6216Z" fill="#5A102A"/>
</svg>
