<svg width="80" height="81" viewBox="0 0 80 81" fill="none" xmlns="http://www.w3.org/2000/svg">
<circle opacity="0.05" cx="40" cy="40.1216" r="40" fill="#5A102A"/>
<g clip-path="url(#clip0_165_2856)">
<path d="M27.1877 34.4592L29.4186 39.3345C29.4684 39.4433 29.5484 39.5356 29.6492 39.6003C29.7499 39.6649 29.8671 39.6993 29.9868 39.6993C30.1066 39.6993 30.2238 39.6649 30.3245 39.6003C30.4252 39.5356 30.5053 39.4433 30.5551 39.3345L32.7861 34.4591C35.5733 33.3266 37.428 30.5885 37.428 27.5627C37.428 23.4597 34.09 20.1216 29.9869 20.1216C25.8839 20.1216 22.5457 23.4597 22.5457 27.5628C22.5457 30.5885 24.4004 33.3267 27.1877 34.4592ZM29.9869 21.3716C33.4007 21.3716 36.1781 24.1489 36.1781 27.5628C36.1781 30.1545 34.543 32.4925 32.1094 33.3806C32.0317 33.4089 31.9603 33.4524 31.8996 33.5086C31.8388 33.5647 31.7898 33.6324 31.7554 33.7077L29.9869 37.5724L28.2185 33.7078C28.184 33.6325 28.135 33.5649 28.0742 33.5087C28.0135 33.4525 27.9421 33.409 27.8644 33.3806C25.4308 32.4925 23.7957 30.1546 23.7957 27.5628C23.7957 24.1489 26.5731 21.3716 29.9869 21.3716ZM27.336 29.4993L29.103 27.7323L27.336 25.9653C27.2769 25.9075 27.2298 25.8385 27.1975 25.7624C27.1653 25.6863 27.1484 25.6046 27.148 25.5219C27.1475 25.4392 27.1634 25.3573 27.1949 25.2808C27.2263 25.2044 27.2726 25.1349 27.331 25.0765C27.3895 25.018 27.4589 24.9717 27.5354 24.9403C27.6118 24.9089 27.6938 24.8929 27.7764 24.8934C27.8591 24.8939 27.9409 24.9107 28.017 24.943C28.0931 24.9753 28.162 25.0223 28.2198 25.0814L29.9868 26.8485L31.7539 25.0814C31.8117 25.0223 31.8806 24.9753 31.9567 24.943C32.0328 24.9107 32.1146 24.8939 32.1972 24.8934C32.2799 24.8929 32.3618 24.9089 32.4383 24.9403C32.5147 24.9717 32.5842 25.018 32.6427 25.0765C32.7011 25.1349 32.7474 25.2044 32.7788 25.2808C32.8102 25.3573 32.8262 25.4392 32.8257 25.5219C32.8253 25.6046 32.8084 25.6863 32.7761 25.7624C32.7438 25.8385 32.6968 25.9075 32.6377 25.9653L30.8707 27.7323L32.6377 29.4993C32.6963 29.5572 32.7429 29.6262 32.7748 29.7021C32.8066 29.7781 32.8232 29.8596 32.8234 29.942C32.8237 30.0244 32.8076 30.1061 32.7762 30.1822C32.7448 30.2584 32.6986 30.3276 32.6403 30.3859C32.5821 30.4441 32.5129 30.4903 32.4367 30.5217C32.3605 30.5531 32.2789 30.5692 32.1965 30.5689C32.1141 30.5687 32.0326 30.5521 31.9566 30.5202C31.8806 30.4884 31.8117 30.4418 31.7538 30.3831L29.9868 28.6161L28.2197 30.3831C28.1617 30.4412 28.0928 30.4872 28.017 30.5187C27.9412 30.5501 27.8599 30.5662 27.7778 30.5662C27.6957 30.5662 27.6145 30.5501 27.5386 30.5187C27.4628 30.4872 27.3939 30.4412 27.3359 30.3831C27.2187 30.2659 27.1529 30.107 27.1529 29.9412C27.1529 29.7755 27.2188 29.6165 27.336 29.4993ZM47.2139 34.4592L49.4447 39.3345C49.4946 39.4433 49.5746 39.5356 49.6753 39.6003C49.7761 39.6649 49.8933 39.6993 50.013 39.6993C50.1327 39.6993 50.2499 39.6649 50.3507 39.6003C50.4514 39.5356 50.5315 39.4433 50.5813 39.3345L52.8121 34.4591C55.5995 33.3266 57.4541 30.5885 57.4541 27.5627C57.4543 23.4597 54.1161 20.1216 50.013 20.1216C45.91 20.1216 42.5718 23.4597 42.5718 27.5628C42.5719 30.5885 44.4265 33.3267 47.2139 34.4592ZM50.013 21.3716C53.4268 21.3716 56.2042 24.1489 56.2042 27.5628C56.2042 30.1545 54.5691 32.4925 52.1355 33.3806C52.0578 33.4089 51.9864 33.4525 51.9257 33.5086C51.8649 33.5648 51.8159 33.6324 51.7814 33.7077L50.013 37.5724L48.2446 33.7078C48.2101 33.6325 48.1611 33.5649 48.1003 33.5087C48.0396 33.4525 47.9682 33.409 47.8905 33.3806C45.4569 32.4925 43.8218 30.1546 43.8218 27.5628C43.8219 24.1489 46.5993 21.3716 50.013 21.3716ZM46.8951 27.8207C46.836 27.7629 46.789 27.694 46.7567 27.6179C46.7244 27.5418 46.7076 27.46 46.7071 27.3774C46.7066 27.2947 46.7226 27.2128 46.754 27.1363C46.7854 27.0598 46.8317 26.9904 46.8901 26.9319C46.9486 26.8735 47.0181 26.8272 47.0945 26.7958C47.171 26.7644 47.2529 26.7484 47.3356 26.7489C47.4182 26.7493 47.5 26.7662 47.5761 26.7985C47.6522 26.8307 47.7211 26.8778 47.7789 26.9369L49.3566 28.5146L52.2471 25.6242C52.3051 25.5661 52.374 25.5201 52.4498 25.4887C52.5256 25.4573 52.6069 25.4411 52.689 25.4411C52.771 25.4411 52.8523 25.4573 52.9281 25.4887C53.004 25.5201 53.0729 25.5661 53.1309 25.6242C53.1889 25.6822 53.235 25.7511 53.2664 25.8269C53.2978 25.9027 53.314 25.984 53.314 26.0661C53.314 26.1481 53.2978 26.2294 53.2664 26.3052C53.235 26.3811 53.1889 26.45 53.1309 26.508L49.7986 29.8403C49.7407 29.8985 49.6718 29.9445 49.5959 29.976C49.5201 30.0074 49.4388 30.0235 49.3567 30.0234C49.2746 30.0235 49.1933 30.0074 49.1174 29.976C49.0416 29.9446 48.9727 29.8985 48.9147 29.8403L46.8951 27.8207ZM35.4064 52.2481C34.5812 51.6302 33.673 51.1666 32.712 50.8638C34.0139 49.9855 34.8717 48.497 34.8717 46.8118C34.8717 44.1184 32.6804 41.9271 29.987 41.9271C27.2936 41.9271 25.1023 44.1185 25.1023 46.8118C25.1023 48.497 25.9601 49.9855 27.262 50.8638C26.301 51.1665 25.3927 51.6301 24.5674 52.2481C23.046 53.3873 21.9 55.0097 21.3406 56.8163C21.0947 57.61 21.2309 58.4156 21.724 59.0844C22.217 59.7532 22.9461 60.1216 23.777 60.1216H36.1967C37.0276 60.1216 37.7568 59.7532 38.2498 59.0844C38.7429 58.4155 38.879 57.61 38.6332 56.8164C38.0739 55.0097 36.9278 53.3874 35.4064 52.2481ZM26.3522 46.8118C26.3522 44.8077 27.9828 43.1771 29.9869 43.1771C31.9911 43.1771 33.6216 44.8077 33.6216 46.8118C33.6216 48.816 31.9911 50.4465 29.9869 50.4465C27.9828 50.4465 26.3522 48.816 26.3522 46.8118ZM37.2437 58.3426C36.985 58.6936 36.6328 58.8716 36.1968 58.8716H23.777C23.3411 58.8716 22.9888 58.6936 22.73 58.3426C22.4713 57.9917 22.4055 57.6025 22.5346 57.186C23.5513 53.9026 26.5462 51.6964 29.9869 51.6964C33.4276 51.6964 36.4225 53.9025 37.4393 57.1861C37.5682 57.6026 37.5025 57.9917 37.2437 58.3426ZM58.6595 56.8163C58.1 55.0097 56.954 53.3873 55.4326 52.248C54.6074 51.6301 53.6992 51.1665 52.7382 50.8638C54.04 49.9854 54.8978 48.4969 54.8978 46.8117C54.8978 44.1183 52.7066 41.927 50.0132 41.927C47.3197 41.927 45.1285 44.1184 45.1285 46.8117C45.1285 48.4969 45.9863 49.9854 47.2882 50.8637C46.3271 51.1664 45.4189 51.63 44.5935 52.248C43.0721 53.3872 41.9261 55.0096 41.3668 56.8163C41.1209 57.61 41.2571 58.4155 41.7502 59.0842C42.2432 59.7532 42.9724 60.1215 43.8033 60.1215H56.2231C57.054 60.1215 57.7832 59.7531 58.2761 59.0843C58.7691 58.4155 58.9053 57.6101 58.6595 56.8163ZM46.3784 46.8118C46.3784 44.8077 48.0089 43.1771 50.0131 43.1771C52.0172 43.1771 53.6478 44.8077 53.6478 46.8118C53.6478 48.816 52.0172 50.4465 50.0131 50.4465C48.0089 50.4465 46.3784 48.816 46.3784 46.8118ZM57.2698 58.3427C57.0111 58.6936 56.6589 58.8716 56.2229 58.8716H43.8032C43.3671 58.8716 43.015 58.6937 42.7562 58.3426C42.4975 57.9917 42.4317 57.6025 42.5607 57.186C43.5774 53.9026 46.5723 51.6964 50.013 51.6964C53.4537 51.6964 56.4486 53.9025 57.4654 57.1861C57.5944 57.6026 57.5286 57.9917 57.2698 58.3427Z" fill="#5A102A" stroke="#5A102A" stroke-width="0.5"/>
</g>
<defs>
<clipPath id="clip0_165_2856">
<rect width="40" height="40" fill="white" transform="translate(20 20.1216)"/>
</clipPath>
</defs>
</svg>
