<svg width="80" height="81" viewBox="0 0 80 81" fill="none" xmlns="http://www.w3.org/2000/svg">
<circle opacity="0.05" cx="40" cy="40.1216" r="40" fill="#5A102A"/>
<g clip-path="url(#clip0_165_2842)">
<path d="M33.9154 26.0126C33.5868 25.6667 33.3065 25.2778 33.0822 24.8567L22.0333 36.0005L24.1708 35.8412L33.9154 26.0126ZM55.2845 33.5265L42.6697 24.2583C42.5009 24.7027 42.2726 25.1222 41.9912 25.5053L53.128 33.6865L55.2845 33.5265ZM61.9944 55.5055L60.6514 36.666C60.6105 36.1062 60.3494 35.5855 59.9251 35.218C59.5009 34.8506 58.9483 34.6663 58.3884 34.7057L18.9624 37.6395C18.4027 37.683 17.8829 37.9461 17.5163 38.3713C17.1497 38.7965 16.9662 39.3495 17.0056 39.9095L18.3486 58.7487C18.3872 59.2813 18.6254 59.7797 19.0155 60.1443C19.4057 60.5089 19.9191 60.7128 20.4531 60.7153C20.5054 60.7153 60.0376 57.7756 60.0376 57.7756C60.5973 57.732 61.1171 57.469 61.4837 57.0437C61.8503 56.6185 62.0338 56.0656 61.9944 55.5055ZM59.9332 56.3732L20.5075 59.307C20.4147 59.3135 20.3215 59.3016 20.2333 59.2721C20.145 59.2425 20.0635 59.1959 19.9933 59.1348C19.9231 59.0737 19.8656 58.9994 19.8241 58.916C19.7827 58.8327 19.7581 58.742 19.7517 58.6492L18.408 39.8097C18.394 39.6207 18.4555 39.4338 18.5788 39.2899C18.7022 39.146 18.8775 39.0569 19.0665 39.0419C19.0665 39.0419 58.529 36.106 58.547 36.106C58.7255 36.1073 58.897 36.176 59.0271 36.2984C59.1572 36.4207 59.2364 36.5877 59.2487 36.7658L60.5916 55.6054C60.6056 55.7944 60.5442 55.9813 60.4208 56.1251C60.2974 56.269 60.1221 56.3582 59.9332 56.3732Z" fill="#5A102A" stroke="#5A102A" stroke-width="0.5"/>
<path d="M21.5703 42.4341C21.9586 42.4341 22.2734 42.1193 22.2734 41.731C22.2734 41.3426 21.9586 41.0278 21.5703 41.0278C21.182 41.0278 20.8672 41.3426 20.8672 41.731C20.8672 42.1193 21.182 42.4341 21.5703 42.4341Z" fill="#5A102A" stroke="#5A102A" stroke-width="0.5"/>
<path d="M22.2734 57.1997C22.6618 57.1997 22.9766 56.8849 22.9766 56.4966C22.9766 56.1083 22.6618 55.7935 22.2734 55.7935C21.8851 55.7935 21.5703 56.1083 21.5703 56.4966C21.5703 56.8849 21.8851 57.1997 22.2734 57.1997Z" fill="#5A102A" stroke="#5A102A" stroke-width="0.5"/>
<path d="M57.4297 54.3872C57.818 54.3872 58.1328 54.0724 58.1328 53.6841C58.1328 53.2958 57.818 52.981 57.4297 52.981C57.0414 52.981 56.7266 53.2958 56.7266 53.6841C56.7266 54.0724 57.0414 54.3872 57.4297 54.3872Z" fill="#5A102A" stroke="#5A102A" stroke-width="0.5"/>
<path d="M56.375 39.9731C56.7633 39.9731 57.0781 39.6583 57.0781 39.27C57.0781 38.8817 56.7633 38.5669 56.375 38.5669C55.9867 38.5669 55.6719 38.8817 55.6719 39.27C55.6719 39.6583 55.9867 39.9731 56.375 39.9731Z" fill="#5A102A" stroke="#5A102A" stroke-width="0.5"/>
<path d="M39.5 41.3794C38.2484 41.3794 37.0249 41.7505 35.9843 42.4459C34.9436 43.1412 34.1325 44.1295 33.6536 45.2859C33.1746 46.4422 33.0493 47.7145 33.2935 48.9421C33.5376 50.1696 34.1403 51.2972 35.0253 52.1822C35.9103 53.0672 37.0379 53.6699 38.2654 53.9141C39.493 54.1582 40.7654 54.0329 41.9217 53.5539C43.078 53.075 44.0663 52.2639 44.7616 51.2232C45.457 50.1826 45.8281 48.9591 45.8281 47.7075C45.8262 46.0298 45.1588 44.4213 43.9725 43.235C42.7862 42.0487 41.1777 41.3813 39.5 41.3794ZM39.5 52.6294C38.5265 52.6294 37.575 52.3407 36.7656 51.7999C35.9562 51.2591 35.3253 50.4904 34.9528 49.591C34.5803 48.6917 34.4828 47.7021 34.6727 46.7473C34.8626 45.7926 35.3314 44.9156 36.0197 44.2272C36.708 43.5389 37.585 43.0701 38.5398 42.8802C39.4945 42.6903 40.4842 42.7878 41.3835 43.1603C42.2829 43.5328 43.0516 44.1637 43.5924 44.9731C44.1332 45.7825 44.4219 46.7341 44.4219 47.7075C44.4204 49.0124 43.9014 50.2635 42.9787 51.1862C42.0559 52.1089 40.8049 52.6279 39.5 52.6294Z" fill="#5A102A" stroke="#5A102A" stroke-width="0.5"/>
<path d="M41.7549 45.4526C41.6231 45.3208 41.4443 45.2467 41.2578 45.2467C41.0714 45.2467 40.8926 45.3208 40.7607 45.4526L39.5 46.7133L38.2393 45.4526C38.1744 45.3854 38.0968 45.3319 38.0111 45.295C37.9253 45.2582 37.833 45.2388 37.7397 45.238C37.6463 45.2372 37.5537 45.255 37.4673 45.2903C37.3809 45.3257 37.3024 45.3779 37.2364 45.4439C37.1703 45.5099 37.1181 45.5884 37.0828 45.6748C37.0474 45.7612 37.0296 45.8538 37.0304 45.9472C37.0313 46.0405 37.0507 46.1328 37.0875 46.2186C37.1244 46.3044 37.1779 46.382 37.2451 46.4468L38.5058 47.7075L37.2451 48.9682C37.1779 49.0331 37.1244 49.1107 37.0875 49.1965C37.0507 49.2822 37.0313 49.3745 37.0304 49.4679C37.0296 49.5612 37.0474 49.6538 37.0828 49.7402C37.1181 49.8266 37.1703 49.9051 37.2364 49.9712C37.3024 50.0372 37.3809 50.0894 37.4673 50.1247C37.5537 50.1601 37.6463 50.1779 37.7397 50.1771C37.833 50.1763 37.9253 50.1569 38.0111 50.12C38.0968 50.0832 38.1744 50.0296 38.2393 49.9624L39.5 48.7017L40.7607 49.9624C40.8935 50.0926 41.0719 50.1654 41.2578 50.1654C41.4437 50.1654 41.6222 50.0926 41.7549 49.9624C41.8867 49.8306 41.9608 49.6518 41.9608 49.4653C41.9608 49.2789 41.8867 49.1001 41.7549 48.9682L40.4942 47.7075L41.7549 46.4468C41.8867 46.315 41.9608 46.1362 41.9608 45.9497C41.9608 45.7633 41.8867 45.5845 41.7549 45.4526ZM37.7422 26.2622C38.507 26.2622 39.2547 26.0354 39.8907 25.6105C40.5266 25.1855 41.0223 24.5816 41.315 23.8749C41.6077 23.1683 41.6843 22.3907 41.5351 21.6406C41.3858 20.8904 41.0175 20.2013 40.4767 19.6605C39.9359 19.1197 39.2468 18.7514 38.4966 18.6021C37.7465 18.4529 36.9689 18.5295 36.2623 18.8222C35.5556 19.1149 34.9517 19.6106 34.5267 20.2465C34.1018 20.8825 33.875 21.6302 33.875 22.395C33.8761 23.4203 34.2839 24.4033 35.0089 25.1283C35.7339 25.8533 36.7169 26.2611 37.7422 26.2622ZM37.7422 24.856C37.0929 24.8551 36.4703 24.598 36.0096 24.1404C35.549 23.6828 35.2878 23.0618 35.2827 22.4126C35.8677 22.5617 38.2277 23.249 39.815 23.7169C39.593 24.0656 39.2867 24.3528 38.9245 24.5519C38.5622 24.7509 38.1556 24.8555 37.7422 24.856ZM37.7422 19.9341C38.3893 19.935 39.01 20.1904 39.4702 20.6453C39.9305 21.1001 40.1932 21.7178 40.2017 22.3648C37.269 21.4999 36.1313 21.1825 35.6754 21.0644C35.8978 20.7181 36.2035 20.4331 36.5646 20.2356C36.9257 20.0382 37.3306 19.9345 37.7422 19.9341Z" fill="#5A102A" stroke="#5A102A" stroke-width="0.5"/>
</g>
<defs>
<clipPath id="clip0_165_2842">
<rect width="45" height="45" fill="white" transform="translate(17 17.1216)"/>
</clipPath>
</defs>
</svg>
