<svg width="23" height="23" viewBox="0 0 23 23" fill="none" xmlns="http://www.w3.org/2000/svg">
<path d="M6 2.75C6 1.375 4.875 0.25 3.5 0.25C2.125 0.25 1 1.375 1 2.75C1 4.125 2.125 5.25 3.5 5.25C4.875 5.25 6 4.125 6 2.75ZM3.5 4.25C2.675 4.25 2 3.575 2 2.75C2 1.925 2.675 1.25 3.5 1.25C4.325 1.25 5 1.925 5 2.75C5 3.575 4.325 4.25 3.5 4.25ZM14 2.75C14 1.375 12.875 0.25 11.5 0.25C10.125 0.25 9 1.375 9 2.75C9 4.125 10.125 5.25 11.5 5.25C12.875 5.25 14 4.125 14 2.75ZM11.5 4.25C10.675 4.25 10 3.575 10 2.75C10 1.925 10.675 1.25 11.5 1.25C12.325 1.25 13 1.925 13 2.75C13 3.575 12.325 4.25 11.5 4.25ZM22 2.75C22 1.375 20.875 0.25 19.5 0.25C18.125 0.25 17 1.375 17 2.75C17 4.125 18.125 5.25 19.5 5.25C20.875 5.25 22 4.125 22 2.75ZM19.5 4.25C18.675 4.25 18 3.575 18 2.75C18 1.925 18.675 1.25 19.5 1.25C20.325 1.25 21 1.925 21 2.75C21 3.575 20.325 4.25 19.5 4.25ZM19.5 5.25C17.85 5.25 16.5 6.6 16.5 8.25V11.25H14.5V8.25C14.5 6.6 13.15 5.25 11.5 5.25C9.85 5.25 8.5 6.6 8.5 8.25V11.25H6.5V8.25C6.5 6.6 5.15 5.25 3.5 5.25C1.85 5.25 0.5 6.6 0.5 8.25V11.75C0.5 17.825 5.425 22.75 11.5 22.75C17.575 22.75 22.5 17.825 22.5 11.75V8.25C22.5 6.6 21.15 5.25 19.5 5.25ZM20.3 16.5H16.925C17.25 15.2 17.45 13.775 17.475 12.25H21.475C21.4 13.775 21 15.225 20.3 16.5ZM1.525 12.25H5.525C5.55 13.775 5.75 15.2 6.075 16.5H2.7C2 15.225 1.6 13.775 1.525 12.25ZM6.5 12.25H11V16.5H7.125C6.775 15.225 6.55 13.775 6.5 12.25ZM11 17.5V21.7C9.55 21.4 8.275 19.8 7.45 17.5H11ZM12 21.7V17.5H15.55C14.725 19.8 13.45 21.4 12 21.7ZM12 16.5V12.25H16.5C16.45 13.775 16.25 15.225 15.875 16.5H12ZM17.5 8.25C17.5 7.15 18.4 6.25 19.5 6.25C20.6 6.25 21.5 7.15 21.5 8.25V11.25H17.5V8.25ZM9.5 8.25C9.5 7.15 10.4 6.25 11.5 6.25C12.6 6.25 13.5 7.15 13.5 8.25V11.25H9.5V8.25ZM1.5 8.25C1.5 7.15 2.4 6.25 3.5 6.25C4.6 6.25 5.5 7.15 5.5 8.25V11.25H1.5V8.25ZM3.325 17.5H6.35C6.875 19.075 7.575 20.35 8.45 21.275C6.375 20.6 4.575 19.25 3.325 17.5ZM14.55 21.275C15.425 20.35 16.125 19.075 16.65 17.5H19.675C18.425 19.25 16.625 20.6 14.55 21.275Z" fill="black"/>
</svg>
