<svg width="80" height="81" viewBox="0 0 80 81" fill="none" xmlns="http://www.w3.org/2000/svg">
<circle opacity="0.05" cx="40" cy="40.1216" r="40" fill="#5A102A"/>
<g clip-path="url(#clip0_165_2824)">
<path d="M58.891 56.916L53.3667 47.7327C53.5563 47.2954 53.7545 46.8917 54.0131 46.5553C54.4095 46.0171 55.0128 45.5462 55.6505 45.0416C56.6675 44.2343 57.7275 43.4101 58.1412 42.1655C58.5376 40.9797 58.2015 39.7267 57.874 38.5073C57.6586 37.7084 57.4517 36.9599 57.4517 36.2535C57.4517 35.5471 57.6586 34.7902 57.874 33.9997C58.2015 32.7887 58.5376 31.5273 58.1412 30.3415C57.7275 29.1053 56.6761 28.2728 55.6505 27.4739C55.0128 26.9693 54.4095 26.4983 54.0131 25.9601C53.608 25.4135 53.3236 24.6987 53.0306 23.9502C52.5652 22.7645 52.074 21.5366 51.0139 20.7798C49.9625 20.0313 48.6267 19.9556 47.3253 19.8884C46.498 19.8463 45.7051 19.7958 45.0415 19.5856C44.4124 19.3838 43.7746 18.9801 43.1024 18.5512C41.9993 17.8448 40.8531 17.1216 39.4914 17.1216C38.1297 17.1216 36.9921 17.8448 35.8804 18.5512C35.2081 18.9801 34.5704 19.3838 33.9413 19.5856C33.269 19.7958 32.4848 19.8379 31.6574 19.8884C30.3647 19.9556 29.0203 20.0313 27.9688 20.7798C26.9088 21.5366 26.4176 22.7645 25.9522 23.9502C25.6505 24.7071 25.3748 25.4135 24.9697 25.9601C24.5733 26.4983 23.97 26.9693 23.3322 27.4739C22.3153 28.2812 21.2553 29.1053 20.8416 30.3499C20.4451 31.5357 20.7813 32.7887 21.1088 34.0081C21.3242 34.8071 21.531 35.5555 21.531 36.2619C21.531 36.9683 21.3242 37.7252 21.1088 38.5157C20.7813 39.7267 20.4451 40.9881 20.8416 42.1739C21.2553 43.4101 22.3067 44.2427 23.3322 45.0416C23.97 45.5462 24.5733 46.0171 24.9697 46.5553C25.2196 46.8917 25.4265 47.2954 25.6161 47.7327L20.0918 56.916C19.9625 57.1263 19.9711 57.387 20.109 57.5888C20.2469 57.7906 20.4882 57.8915 20.7382 57.8579L25.6936 57.1599L27.4776 61.7179C27.5638 61.945 27.7792 62.1048 28.0292 62.1216C28.0464 62.1216 28.0636 62.1216 28.0809 62.1216C28.305 62.1216 28.5204 62.0038 28.6411 61.8104L33.9757 52.9383C34.5962 53.1401 35.2254 53.5437 35.889 53.9642C36.9921 54.6706 38.1383 55.3939 39.5 55.3939C40.8617 55.3939 41.9993 54.6706 43.111 53.9642C43.7746 53.5437 44.4038 53.1401 45.0243 52.9383L50.3589 61.8104C50.4796 62.0038 50.6864 62.1216 50.9191 62.1216C50.9364 62.1216 50.9536 62.1216 50.9708 62.1216C51.2208 62.1048 51.4362 61.945 51.5224 61.7179L53.3064 57.1599L58.2618 57.8579C58.5118 57.8915 58.7531 57.7906 58.891 57.5888C59.0289 57.387 59.0375 57.1263 58.9082 56.916H58.891ZM39.4828 54.1324C38.5089 54.1324 37.5695 53.5353 36.5784 52.9046C35.8631 52.4505 35.122 51.9796 34.3291 51.7273C33.5017 51.4666 32.5968 51.4161 31.7178 51.3656C30.5629 51.2984 29.4684 51.2395 28.7186 50.7097C27.9602 50.1715 27.5638 49.1707 27.1501 48.1111C26.8399 47.3122 26.5124 46.4881 26.0039 45.8153C25.504 45.1425 24.806 44.5959 24.1337 44.0661C23.2202 43.3428 22.3584 42.6701 22.0654 41.7871C21.7896 40.9545 22.0654 39.9285 22.3584 38.8437C22.5825 38.0027 22.8238 37.1365 22.8238 36.2619C22.8238 35.3873 22.5911 34.5211 22.3584 33.6802C22.0654 32.5953 21.7896 31.5693 22.0654 30.7368C22.3584 29.8538 23.2202 29.1726 24.1337 28.4578C24.806 27.928 25.504 27.3813 26.0039 26.7086C26.5124 26.0274 26.8399 25.2032 27.1501 24.4127C27.5724 23.3531 27.9688 22.344 28.7186 21.8142C29.4598 21.2844 30.5543 21.2255 31.7178 21.1582C32.5968 21.1078 33.5017 21.0573 34.3291 20.7966C35.122 20.5443 35.8631 20.0734 36.5784 19.6192C37.5695 18.9885 38.5003 18.3914 39.4828 18.3914C40.4652 18.3914 41.396 18.9885 42.3871 19.6192C43.1024 20.0734 43.8436 20.5443 44.6364 20.7966C45.4638 21.0573 46.3687 21.1078 47.2478 21.1582C48.4026 21.2255 49.4971 21.2844 50.2469 21.8142C51.0053 22.3524 51.4017 23.3531 51.8154 24.4127C52.1257 25.2117 52.4532 26.0358 52.9616 26.7086C53.4615 27.3813 54.1596 27.928 54.8318 28.4578C55.7453 29.181 56.6071 29.8538 56.9002 30.7368C57.1759 31.5693 56.9002 32.5953 56.6071 33.6802C56.3831 34.5211 56.1418 35.3873 56.1418 36.2619C56.1418 37.1365 56.3744 38.0027 56.6071 38.8437C56.9002 39.9285 57.1759 40.9545 56.9002 41.7871C56.6071 42.6701 55.7453 43.3513 54.8318 44.0661C54.1596 44.5959 53.4615 45.1425 52.9616 45.8153C52.4532 46.4965 52.1257 47.3206 51.8154 48.1111C51.3931 49.1707 50.9967 50.1799 50.2469 50.7097C49.5057 51.2395 48.4112 51.2984 47.2478 51.3656C46.3687 51.4161 45.4638 51.4666 44.6364 51.7273C43.8436 51.9796 43.1024 52.4505 42.3871 52.9046C41.396 53.5353 40.4652 54.1324 39.4828 54.1324ZM28.1843 60.036L26.702 56.2348C26.5985 55.9573 26.3055 55.7975 26.0039 55.8396L21.8758 56.4282L26.2107 49.2212C26.6158 50.1883 27.0984 51.1218 27.9602 51.7357C29.0116 52.4841 30.3475 52.5598 31.6488 52.6271C31.9763 52.6439 32.2952 52.6691 32.6054 52.6944L28.1843 60.036ZM52.953 55.8312C52.6514 55.7891 52.367 55.9573 52.2549 56.2264L50.7726 60.0276L46.3515 52.686C46.6617 52.6607 46.9806 52.6355 47.3081 52.6187C48.6008 52.5514 49.9453 52.4757 50.9967 51.7273C51.8671 51.1134 52.3497 50.1799 52.7462 49.2128L57.0811 56.4198L52.953 55.8312ZM53.315 36.2535C53.315 28.811 47.1099 22.756 39.4828 22.756C31.8557 22.756 25.6505 28.811 25.6505 36.2535C25.6505 43.6961 31.8557 49.751 39.4828 49.751C47.1099 49.751 53.315 43.6961 53.315 36.2535ZM39.4828 48.4896C32.5623 48.4896 26.9433 42.9981 26.9433 36.2535C26.9433 29.509 32.571 24.0175 39.4828 24.0175C46.3946 24.0175 52.0223 29.509 52.0223 36.2535C52.0223 42.9981 46.3946 48.4896 39.4828 48.4896ZM34.5359 35.3789C36.3199 35.3789 37.7677 33.9661 37.7677 32.2253C37.7677 30.4845 36.3199 29.0717 34.5359 29.0717C32.7519 29.0717 31.3041 30.4845 31.3041 32.2253C31.3041 33.9661 32.7519 35.3789 34.5359 35.3789ZM34.5359 30.3331C35.6046 30.3331 36.475 31.1825 36.475 32.2253C36.475 33.2681 35.6046 34.1175 34.5359 34.1175C33.4673 34.1175 32.5968 33.2681 32.5968 32.2253C32.5968 31.1825 33.4673 30.3331 34.5359 30.3331ZM44.4296 37.1113C42.6456 37.1113 41.1978 38.5241 41.1978 40.2649C41.1978 42.0057 42.6456 43.4185 44.4296 43.4185C46.2136 43.4185 47.6614 42.0057 47.6614 40.2649C47.6614 38.5241 46.2136 37.1113 44.4296 37.1113ZM44.4296 42.1571C43.361 42.1571 42.4905 41.3077 42.4905 40.2649C42.4905 39.2221 43.361 38.3727 44.4296 38.3727C45.4983 38.3727 46.3687 39.2221 46.3687 40.2649C46.3687 41.3077 45.4983 42.1571 44.4296 42.1571ZM46.8341 29.9631L33.045 43.4185C32.9157 43.5447 32.7519 43.6035 32.5882 43.6035C32.4245 43.6035 32.2607 43.5447 32.1314 43.4185C31.8815 43.1747 31.8815 42.771 32.1314 42.5271L45.9206 29.0717C46.1705 28.8278 46.5842 28.8278 46.8341 29.0717C47.084 29.3156 47.084 29.7192 46.8341 29.9631Z" fill="#5A102A" stroke="#5A102A" stroke-width="0.8"/>
</g>
<defs>
<clipPath id="clip0_165_2824">
<rect width="45" height="45" fill="white" transform="translate(17 17.1216)"/>
</clipPath>
</defs>
</svg>
