<svg width="80" height="81" viewBox="0 0 80 81" fill="none" xmlns="http://www.w3.org/2000/svg">
<circle opacity="0.05" cx="40" cy="40.1216" r="40" fill="#5A102A"/>
<path fill-rule="evenodd" clip-rule="evenodd" d="M40.04 24.631L39.5038 24.6216C31.7413 24.6216 24.7419 30.1022 20.8644 39.0703C20.7892 39.2444 20.7504 39.432 20.7504 39.6216C20.7504 39.8112 20.7892 39.9988 20.8644 40.1728L21.1325 40.7785C24.9613 49.171 31.5782 54.3666 38.96 54.6122L39.4963 54.6216C47.2588 54.6216 54.2582 49.141 58.1357 40.1728C58.2119 39.9966 58.2507 39.8064 58.2497 39.6144C58.2488 39.4224 58.208 39.2327 58.13 39.0572L57.8675 38.4703C54.0313 30.0591 47.4107 24.8766 40.04 24.631ZM39.5169 27.4135L39.965 27.4247L40.4657 27.4491C46.46 27.8747 51.9725 32.3203 55.3044 39.6197L55.2857 39.6647C51.8732 47.1216 46.1694 51.5935 39.9857 51.8185L39.5075 51.826L39.0257 51.8185L38.5269 51.7922C32.7182 51.3816 27.3613 47.1853 24.0107 40.2966L23.6938 39.6216L23.9882 38.9953C27.5188 31.696 33.2938 27.4135 39.5169 27.4135ZM39.4982 32.3335C35.4482 32.3335 32.1669 35.596 32.1669 39.6216C32.1669 43.6453 35.4482 46.9078 39.4982 46.9078C43.5482 46.9078 46.8332 43.6453 46.8332 39.6216C46.8332 35.596 43.55 32.3335 39.4982 32.3335ZM39.4982 35.1272C40.0904 35.125 40.6773 35.2395 41.2253 35.4642C41.7732 35.6889 42.2715 36.0194 42.6917 36.4368C43.1119 36.8542 43.4457 37.3503 43.674 37.8968C43.9024 38.4432 44.0208 39.0293 44.0225 39.6216C44.0206 40.2135 43.902 40.7993 43.6737 41.3454C43.4453 41.8915 43.1117 42.3873 42.6917 42.8045C42.2718 43.2216 41.7737 43.552 41.2261 43.7767C40.6785 44.0014 40.092 44.1161 39.5 44.1141C38.9083 44.1158 38.3221 44.001 37.7748 43.7761C37.2275 43.5513 36.7298 43.2209 36.3102 42.8037C35.8906 42.3865 35.5573 41.8908 35.3293 41.3448C35.1012 40.7988 34.983 40.2133 34.9813 39.6216C34.983 39.0299 35.1012 38.4443 35.3293 37.8984C35.5573 37.3524 35.8906 36.8566 36.3102 36.4395C36.7298 36.0223 37.2275 35.6919 37.7748 35.467C38.3221 35.2422 38.9083 35.1274 39.5 35.1291L39.4982 35.1272Z" fill="#5A102A"/>
</svg>
