<svg width="80" height="81" viewBox="0 0 80 81" fill="none" xmlns="http://www.w3.org/2000/svg">
<circle opacity="0.05" cx="40" cy="40.1216" r="40" fill="#5A102A"/>
<g clip-path="url(#clip0_165_2799)">
<path d="M40.5597 62.1216C40.1267 62.1216 39.7007 62.008 39.3182 61.7858L36.8249 60.339C36.5837 60.199 36.5009 59.8886 36.6402 59.6461C36.7795 59.4036 37.0884 59.3204 37.3296 59.4604L39.8229 60.9072C40.1661 61.106 40.5668 61.1588 40.9534 61.0543C41.339 60.9508 41.661 60.7032 41.8589 60.3583C42.0567 60.0133 42.1092 59.6096 42.0052 59.222C41.9023 58.8344 41.656 58.5108 41.3138 58.312H41.3128C41.0715 58.1719 40.9887 57.8615 41.128 57.619C41.2673 57.3765 41.5762 57.2933 41.8175 57.4333L43.4406 58.3759C43.7838 58.5747 44.1856 58.6275 44.5711 58.523C44.9578 58.4185 45.2787 58.1719 45.4766 57.827C45.6744 57.482 45.7269 57.0783 45.623 56.6907C45.52 56.3031 45.2747 55.9805 44.9335 55.7817L44.9315 55.7806C44.6903 55.6406 44.6075 55.3302 44.7468 55.0877C44.8861 54.8452 45.195 54.762 45.4362 54.902L47.2451 55.9511C47.5883 56.1499 47.989 56.2027 48.3756 56.0982C48.7612 55.9947 49.0832 55.7472 49.2811 55.4022C49.4789 55.0573 49.5314 54.6545 49.4274 54.2659C49.3245 53.8784 49.0792 53.5557 48.737 53.3559L48.736 53.3549C48.4947 53.2149 48.412 52.9044 48.5513 52.6619C48.6906 52.4194 48.9994 52.3363 49.2407 52.4763C49.2417 52.4773 49.2427 52.4773 49.2437 52.4783L51.2555 53.646C51.9671 54.059 52.8806 53.8134 53.2915 53.0972C53.4893 52.7522 53.5418 52.3494 53.4378 51.9609C53.3339 51.5723 53.0886 51.2497 52.7454 51.0508L37.1439 41.997C36.9026 41.857 36.8199 41.5465 36.9592 41.304C37.0985 41.0616 37.4073 40.9784 37.6486 41.1184L53.2501 50.1722C53.8265 50.507 54.2393 51.0488 54.4129 51.6981C54.5865 52.3474 54.4987 53.0251 54.1656 53.6044C53.4762 54.8046 51.9449 55.2166 50.7508 54.5246L50.4732 54.3633C50.5338 54.8818 50.4348 55.4235 50.1562 55.9095C49.8231 56.4888 49.2841 56.9038 48.6381 57.0783C47.991 57.2528 47.3178 57.1635 46.7414 56.8297L46.6687 56.7881C46.7323 57.3238 46.6243 57.8615 46.3518 58.3343C45.6835 59.4969 44.2249 59.92 43.049 59.3153C43.1136 59.852 43.0055 60.3918 42.733 60.8656C42.3999 61.4449 41.8609 61.8598 41.2148 62.0343C40.9978 62.0922 40.7778 62.1216 40.5597 62.1216ZM25.3449 50.5202C25.2591 50.5202 25.1722 50.4979 25.0925 50.4522L20.2524 47.6429C20.0111 47.5029 19.9283 47.1925 20.0676 46.95L26.0242 36.5803C26.0908 36.4636 26.2008 36.3784 26.3311 36.3439C26.4603 36.3094 26.5985 36.3277 26.7136 36.3946L27.8765 37.0693C30.0901 37.9154 31.26 37.049 32.3926 36.21C33.5877 35.3243 34.9413 34.3219 37.1207 36.1298C37.3357 36.3084 37.366 36.628 37.1883 36.8441C37.0106 37.0602 36.6927 37.0906 36.4777 36.9121C34.906 35.6073 34.1853 36.142 32.9912 37.0267C32.116 37.675 31.0894 38.4359 29.5783 38.4359C28.9646 38.4359 28.2722 38.3101 27.4767 38.0017C27.4525 37.9925 27.4293 37.9814 27.4061 37.9682L26.646 37.5269L21.1941 47.018L25.5972 49.5736C25.8385 49.7136 25.9212 50.0241 25.7819 50.2666C25.6881 50.4289 25.5185 50.5202 25.3449 50.5202Z" fill="#5A102A" stroke="#5A102A" stroke-width="0.5"/>
<path d="M49.4847 53.8844C49.3971 53.8844 49.3085 53.8608 49.227 53.8125L44.2482 50.8218C44.0019 50.6739 43.9174 50.3457 44.0596 50.0894C44.2018 49.8332 44.5172 49.7452 44.7635 49.8932L49.7423 52.8839C49.9887 53.0319 50.0732 53.36 49.9309 53.6163C49.8361 53.7879 49.663 53.8844 49.4847 53.8844ZM45.6014 56.4461C45.5138 56.4461 45.4251 56.4226 45.3437 56.3743L40.3649 53.3836C40.1185 53.2356 40.034 52.9075 40.1763 52.6512C40.3185 52.3949 40.6338 52.307 40.8802 52.455L45.859 55.4457C46.1053 55.5937 46.1898 55.9218 46.0476 56.1781C45.9518 56.3496 45.7786 56.4461 45.6014 56.4461ZM41.9066 59.1216C41.819 59.1216 41.7304 59.098 41.649 59.0497L37.4369 56.5191C37.1906 56.3711 37.1061 56.043 37.2483 55.7867C37.3905 55.5304 37.7059 55.4425 37.9522 55.5904L42.1643 58.1211C42.4106 58.2691 42.4951 58.5972 42.3529 58.8535C42.2581 59.0251 42.0849 59.1216 41.9066 59.1216ZM25.4314 56.652C25.0088 56.652 24.5935 56.5373 24.2194 56.3121C23.0548 55.6119 22.6539 54.057 23.3258 52.8442L24.9655 49.89C25.6385 48.6783 27.1329 48.2611 28.2985 48.9614C28.8612 49.2991 29.2642 49.8471 29.4332 50.5034C29.6022 51.1596 29.5167 51.8438 29.1921 52.4292C29.0498 52.6855 28.7345 52.7735 28.4882 52.6255C28.2418 52.4775 28.1573 52.1494 28.2996 51.8931C28.4871 51.5564 28.5356 51.1607 28.4377 50.7811C28.3397 50.4015 28.1079 50.0852 27.7832 49.89C27.1102 49.4857 26.2466 49.727 25.858 50.4262L24.2184 53.3804C23.8298 54.0806 24.0617 54.9792 24.7337 55.3835C25.0573 55.5786 25.4376 55.629 25.8024 55.5272C26.1672 55.4253 26.4713 55.184 26.6588 54.8462C26.8011 54.59 27.1164 54.502 27.3627 54.65C27.609 54.798 27.6936 55.1261 27.5513 55.3824C27.2267 55.9679 26.7001 56.3872 26.0693 56.563C25.858 56.6231 25.6437 56.652 25.4314 56.652Z" fill="#5A102A" stroke="#5A102A" stroke-width="0.5"/>
<path d="M29.4852 57.6216C29.1402 57.6216 28.8011 57.5132 28.4956 57.3005C27.5447 56.6392 27.2174 55.1706 27.766 54.0251L29.783 49.82C30.0481 49.267 30.4781 48.871 30.9931 48.7049C31.5081 48.5388 32.0449 48.6228 32.5044 48.9419C32.9638 49.2609 33.2928 49.7784 33.4308 50.3983C33.5688 51.0181 33.499 51.6643 33.2339 52.2173L31.2169 56.4224C30.9518 56.9754 30.5219 57.3714 30.0069 57.5375C29.8335 57.5932 29.6585 57.6216 29.4852 57.6216ZM31.5139 49.6356C31.413 49.6356 31.312 49.6518 31.2119 49.6842C30.914 49.7805 30.6657 50.0083 30.5126 50.3274L28.4956 54.5325C28.3425 54.8505 28.3029 55.2243 28.3828 55.5828C28.4628 55.9413 28.6521 56.2401 28.9172 56.4244C29.1814 56.6088 29.4919 56.6564 29.7898 56.5602C30.0877 56.4639 30.3359 56.2361 30.489 55.917L32.506 51.7119C32.8233 51.0505 32.6339 50.2018 32.0853 49.82C31.9086 49.6974 31.7125 49.6356 31.5139 49.6356Z" fill="#5A102A" stroke="#5A102A" stroke-width="0.5"/>
<path d="M32.5407 59.1216C32.1944 59.1216 31.8429 59.0323 31.5216 58.844C30.5457 58.2723 30.2097 57.0028 30.7737 56.0126C30.8929 55.8033 31.1571 55.7315 31.3636 55.8523C31.57 55.9732 31.6408 56.2411 31.5216 56.4503C31.196 57.0221 31.3903 57.7558 31.9534 58.0858C32.5166 58.4159 33.2412 58.2189 33.5668 57.6481L35.4781 54.2921C35.8037 53.7204 35.6094 52.9867 35.0462 52.6567C34.7751 52.4973 34.4564 52.4553 34.1506 52.5393C33.8449 52.6225 33.5901 52.8195 33.4329 53.0953C33.3137 53.3045 33.0494 53.3763 32.843 53.2555C32.6366 53.1347 32.5658 52.8668 32.685 52.6575C32.957 52.1795 33.3984 51.8372 33.9269 51.6936C34.4555 51.55 35.0065 51.6227 35.4781 51.8984C35.9496 52.1742 36.2873 52.6216 36.429 53.1575C36.5706 53.6933 36.4989 54.2519 36.2269 54.7299L34.3156 58.0858C33.9373 58.7495 33.2481 59.1216 32.5407 59.1216Z" fill="#5A102A" stroke="#5A102A" stroke-width="0.5"/>
<path d="M35.869 62.1216C35.4573 62.1216 35.0395 62.0153 34.6576 61.7914C33.4975 61.1112 33.0981 59.6008 33.7675 58.4227C33.9091 58.1738 34.2233 58.0883 34.4687 58.2321C34.714 58.3758 34.7982 58.6946 34.6565 58.9435C34.4697 59.2706 34.4214 59.655 34.519 60.0237C34.6165 60.3925 34.8475 60.6997 35.1709 60.8893C35.4933 61.0779 35.8721 61.1279 36.2355 61.0289C36.599 60.9299 36.9018 60.6956 37.0887 60.3675L38.3782 58.1019C38.7652 57.4217 38.5342 56.5488 37.8648 56.1561C37.1944 55.7634 36.3341 55.9978 35.947 56.6769C35.8054 56.9259 35.4912 57.0113 35.2458 56.8675C35.0005 56.7238 34.9163 56.4051 35.058 56.1561C35.3814 55.5874 35.906 55.1801 36.5343 55.0093C37.1626 54.8384 37.8176 54.9249 38.3782 55.253C38.9387 55.5811 39.3401 56.1134 39.5085 56.7509C39.6769 57.3884 39.5917 58.0529 39.2683 58.6217L37.9788 60.8872C37.5281 61.6799 36.7088 62.1216 35.869 62.1216ZM54.167 51.3823C54.1188 51.3823 54.0685 51.375 54.0202 51.3604C53.7482 51.2781 53.5942 50.9875 53.6753 50.7125C53.7112 50.5896 54.5551 47.8428 57.7572 46.8084L52.9967 36.7722C52.1076 37.4639 50.7483 38.168 49.275 38.168C48.4599 38.168 47.6108 37.9524 46.7854 37.4003C44.7526 36.0399 40.8462 34.1619 37.5158 36.8618L31.9205 41.3971C31.9174 41.4002 31.9133 41.4023 31.9092 41.4054C31.6064 41.6377 31.4821 41.8679 31.5417 42.0867C31.6474 42.4794 32.2306 42.8679 32.8147 42.9356C34.2397 43.1002 36.3813 42.046 37.7683 40.9971C37.9952 40.8252 38.3176 40.8731 38.487 41.1034C38.6564 41.3336 38.6091 41.6606 38.3823 41.8325C37.1913 42.7335 34.6545 44.1981 32.6987 43.971C31.8199 43.8689 30.8004 43.2835 30.552 42.3617C30.4503 41.9846 30.4113 41.2533 31.285 40.5794L36.8751 36.0483C39.6779 33.7754 43.497 33.9514 47.3511 36.5306C49.9896 38.2961 52.7831 35.5899 52.8119 35.5629C52.9299 35.4462 53.0973 35.3941 53.2595 35.4233C53.4217 35.4525 53.5613 35.5597 53.6321 35.7108L58.9492 46.9209C59.0169 47.0636 59.0169 47.2303 58.9492 47.373C58.8814 47.5157 58.7531 47.6199 58.6011 47.6542C55.4678 48.3792 54.667 50.9854 54.6588 51.0114C54.5921 51.2364 54.3878 51.3823 54.167 51.3823ZM39.6912 29.3089C38.3012 29.3089 37.1708 28.162 37.1708 26.7516C37.1708 26.4641 37.4008 26.2308 37.6841 26.2308C37.9675 26.2308 38.1975 26.4641 38.1975 26.7516C38.1975 27.587 38.8679 28.2672 39.6912 28.2672C40.5146 28.2672 41.185 27.587 41.185 26.7516C41.185 25.9162 40.5146 25.236 39.6912 25.236C38.3012 25.236 37.1708 24.0892 37.1708 22.6788C37.1708 21.2684 38.3012 20.1216 39.6912 20.1216C41.0813 20.1216 42.2117 21.2684 42.2117 22.6788C42.2117 22.9663 41.9817 23.1996 41.6983 23.1996C41.415 23.1996 41.185 22.9663 41.185 22.6788C41.185 21.8434 40.5146 21.1632 39.6912 21.1632C38.8679 21.1632 38.1975 21.8434 38.1975 22.6788C38.1975 23.5142 38.8679 24.1944 39.6912 24.1944C41.0813 24.1944 42.2117 25.3412 42.2117 26.7516C42.2117 28.162 41.0813 29.3089 39.6912 29.3089Z" fill="#5A102A" stroke="#5A102A" stroke-width="0.5"/>
<path d="M39.5 22.079C39.5 22.079 39.5 21.8627 39.5 21.5962V20.6044C39.5 20.3379 39.5 20.1216 39.5 20.1216C39.5 20.1216 39.5 20.3379 39.5 20.6044V21.5962C39.5 21.8627 39.5 22.079 39.5 22.079ZM39.5 30.6216C39.5 30.6216 39.5 30.4053 39.5 30.1387V29.147C39.5 28.8804 39.5 28.6641 39.5 28.6641C39.5 28.6641 39.5 28.8804 39.5 29.147V30.1387C39.5 30.4053 39.5 30.6216 39.5 30.6216Z" fill="#5A102A" stroke="#5A102A" stroke-width="0.5"/>
<path d="M39.5 33.6216C35.3641 33.6216 32 29.921 32 25.3716C32 20.8221 35.3641 17.1216 39.5 17.1216C43.6359 17.1216 47 20.8221 47 25.3716C47 29.921 43.6359 33.6216 39.5 33.6216ZM39.5 18.1658C35.8881 18.1658 32.9492 21.3985 32.9492 25.3716C32.9492 29.3447 35.8881 32.5774 39.5 32.5774C43.1119 32.5774 46.0508 29.3447 46.0508 25.3716C46.0508 21.3985 43.1119 18.1658 39.5 18.1658Z" fill="#5A102A" stroke="#5A102A" stroke-width="0.5"/>
</g>
<defs>
<clipPath id="clip0_165_2799">
<rect width="45" height="45" fill="white" transform="translate(17 17.1216)"/>
</clipPath>
</defs>
</svg>
