<svg width="80" height="81" viewBox="0 0 80 81" fill="none" xmlns="http://www.w3.org/2000/svg">
<circle opacity="0.05" cx="40" cy="40.1216" r="40" fill="#5A102A"/>
<path d="M52.1563 35.4028H46.5313C46.1445 35.4028 45.8281 35.7192 45.8281 36.106V47.356C45.8281 50.8435 42.9875 53.6841 39.5 53.6841C36.0125 53.6841 33.1719 50.8435 33.1719 47.356V36.106C33.1719 35.7192 32.8555 35.4028 32.4688 35.4028H26.8438C26.457 35.4028 26.1406 35.7192 26.1406 36.106V47.356C26.1406 54.7247 32.1313 60.7153 39.5 60.7153C46.8688 60.7153 52.8594 54.7247 52.8594 47.356V36.106C52.8594 35.7192 52.543 35.4028 52.1563 35.4028ZM27.5469 36.8091H31.7656V39.6216H27.5469V36.8091ZM51.4531 47.356C51.4531 53.9442 46.0883 59.3091 39.5 59.3091C32.9117 59.3091 27.5469 53.9442 27.5469 47.356V41.0278H31.7656V47.356C31.7656 51.6239 35.232 55.0903 39.5 55.0903C43.768 55.0903 47.2344 51.6239 47.2344 47.356V41.0278H51.4531V47.356ZM51.4531 39.6216H47.2344V36.8091H51.4531V39.6216ZM49.3438 18.5278C45.0758 18.5278 41.6094 21.9942 41.6094 26.2622C41.6094 28.1958 42.3266 29.9677 43.5078 31.3247C43.5219 31.3388 43.5289 31.3528 43.543 31.3669C43.543 31.3669 43.55 31.3669 43.557 31.3669C44.9773 32.97 47.0445 33.9896 49.3508 33.9896C51.657 33.9896 53.7242 32.97 55.1445 31.3669C55.1445 31.3669 55.1516 31.3669 55.1586 31.3669C55.1727 31.3528 55.1797 31.3388 55.1938 31.3247C56.375 29.9677 57.0922 28.1958 57.0922 26.2622C57.0922 21.9942 53.6258 18.5278 49.3578 18.5278H49.3438ZM49.3438 32.5903C47.6492 32.5903 46.1094 31.9153 44.9773 30.8325C46.1516 29.7146 47.7125 29.0747 49.3438 29.0747C50.975 29.0747 52.5359 29.7075 53.7102 30.8325C52.5711 31.9224 51.0383 32.5903 49.3438 32.5903ZM54.6172 29.7497C53.1898 28.4208 51.3055 27.6685 49.3438 27.6685C47.382 27.6685 45.4977 28.4208 44.0703 29.7497C43.4094 28.7513 43.0156 27.5489 43.0156 26.2622C43.0156 22.7747 45.8563 19.9341 49.3438 19.9341C52.8313 19.9341 55.6719 22.7747 55.6719 26.2622C55.6719 27.5489 55.2852 28.7513 54.6172 29.7497Z" fill="#5A102A" stroke="#5A102A" stroke-width="0.5"/>
<path d="M49.3438 21.3404C47.7898 21.3404 46.5312 22.599 46.5312 24.1529C46.5312 25.7068 47.7898 26.9654 49.3438 26.9654C50.8977 26.9654 52.1562 25.7068 52.1562 24.1529C52.1562 22.599 50.8977 21.3404 49.3438 21.3404ZM49.3438 25.5591C48.5703 25.5591 47.9375 24.9263 47.9375 24.1529C47.9375 23.3794 48.5703 22.7466 49.3438 22.7466C50.1172 22.7466 50.75 23.3794 50.75 24.1529C50.75 24.9263 50.1172 25.5591 49.3438 25.5591ZM35.45 31.374C35.45 31.374 35.457 31.374 35.4641 31.374C35.4781 31.3599 35.4852 31.3458 35.4992 31.3318C36.6805 29.9748 37.3977 28.2029 37.3977 26.2693C37.3977 22.0013 33.9313 18.5349 29.6633 18.5349C25.3953 18.5349 21.9219 21.9943 21.9219 26.2623C21.9219 28.1958 22.6391 29.9677 23.8203 31.3248C23.8344 31.3388 23.8414 31.3529 23.8555 31.3669C23.8555 31.3669 23.8625 31.3669 23.8695 31.3669C25.2898 32.9701 27.357 33.9896 29.6633 33.9896C31.9695 33.9896 34.0367 32.9701 35.457 31.3669L35.45 31.374ZM24.3828 29.7498C23.7219 28.7513 23.3281 27.549 23.3281 26.2623C23.3281 22.7748 26.1687 19.9341 29.6562 19.9341C33.1438 19.9341 35.9844 22.7748 35.9844 26.2623C35.9844 27.549 35.5977 28.7513 34.9297 29.7498C33.5023 28.4208 31.618 27.6685 29.6562 27.6685C27.6945 27.6685 25.8102 28.4208 24.3828 29.7498ZM29.6562 29.0748C31.2875 29.0748 32.8484 29.7076 34.0227 30.8326C32.8836 31.9224 31.3508 32.5904 29.6562 32.5904C27.9617 32.5904 26.4219 31.9154 25.2898 30.8326C26.4641 29.7146 28.025 29.0748 29.6562 29.0748Z" fill="#5A102A" stroke="#5A102A" stroke-width="0.5"/>
<path d="M32.4688 24.1528C32.4688 22.5989 31.2102 21.3403 29.6562 21.3403C28.1023 21.3403 26.8438 22.5989 26.8438 24.1528C26.8438 25.7067 28.1023 26.9653 29.6562 26.9653C31.2102 26.9653 32.4688 25.7067 32.4688 24.1528ZM28.25 24.1528C28.25 23.3794 28.8828 22.7466 29.6562 22.7466C30.4297 22.7466 31.0625 23.3794 31.0625 24.1528C31.0625 24.9263 30.4297 25.5591 29.6562 25.5591C28.8828 25.5591 28.25 24.9263 28.25 24.1528ZM36.7719 38.5458C36.8914 38.7778 37.1305 38.9185 37.3906 38.9185H40.2945L38.2133 42.0474C37.9953 42.3708 38.0867 42.8067 38.4102 43.0247C38.5297 43.1021 38.6633 43.1442 38.7969 43.1442C39.0219 43.1442 39.2469 43.0317 39.3805 42.8278L42.193 38.6091C42.3336 38.3911 42.3477 38.1169 42.2281 37.8849C42.1086 37.6528 41.8695 37.5122 41.6094 37.5122H38.7055L40.7867 34.3833C41.0047 34.0599 40.9133 33.6239 40.5898 33.406C40.2664 33.188 39.8305 33.2794 39.6125 33.6028L36.8 37.8216C36.6594 38.0396 36.6453 38.3138 36.7648 38.5458H36.7719Z" fill="#5A102A" stroke="#5A102A" stroke-width="0.5"/>
</svg>
