<svg width="25" height="25" viewBox="0 0 25 25" fill="none" xmlns="http://www.w3.org/2000/svg">
<g clip-path="url(#clip0_82_377)">
<path d="M19.4233 6.41565C18.2679 -1.70388 6.73194 -1.70701 5.57647 6.41565C-1.9665 6.9133 -1.81415 17.7875 5.76944 18.043H8.796C9.8921 18.036 9.88819 16.3766 8.796 16.3711H5.76866C4.67129 16.3699 3.61923 15.9334 2.84327 15.1574C2.06731 14.3815 1.63084 13.3294 1.6296 12.2321C1.61397 9.68752 3.88585 7.83205 6.36241 8.0844C6.47219 8.0844 6.58089 8.06278 6.68231 8.02077C6.78373 7.97876 6.87588 7.91718 6.95351 7.83956C7.03113 7.76193 7.0927 7.66978 7.13471 7.56836C7.17672 7.46694 7.19835 7.35824 7.19835 7.24846C7.44678 0.246118 17.5523 0.242993 17.8007 7.24846C17.8007 7.71096 18.1749 8.0844 18.6366 8.0844C21.1124 7.83284 23.3866 9.68674 23.3694 12.2321C23.3682 13.3294 22.9317 14.3815 22.1558 15.1574C21.3798 15.9334 20.3277 16.3699 19.2304 16.3711H16.2038C15.1085 16.3735 15.1116 18.0406 16.2038 18.043H19.2304C26.8085 17.7891 26.971 6.91565 19.4233 6.41565Z" fill="white"/>
<path d="M16.3173 13.9359C16.474 13.7792 16.562 13.5666 16.562 13.3449C16.562 13.1232 16.474 12.9107 16.3173 12.7539L13.0907 9.52733C12.7727 9.21483 12.2235 9.21015 11.9087 9.52733L8.68212 12.7539C7.91415 13.5297 9.08759 14.707 9.86494 13.9359L11.6642 12.1375V23.8562C11.6665 24.9422 13.3321 24.9547 13.336 23.8562V12.1375L15.1353 13.9359C15.292 14.0926 15.5046 14.1807 15.7263 14.1807C15.9479 14.1807 16.1605 14.0926 16.3173 13.9359Z" fill="white"/>
</g>
<defs>
<clipPath id="clip0_82_377">
<rect width="25" height="25" fill="white"/>
</clipPath>
</defs>
</svg>
